<?xml version="1.0" standalone="no"?>
<!DOCTYPE svg PUBLIC "-//W3C//DTD SVG 20010904//EN"
 "http://www.w3.org/TR/2001/REC-SVG-20010904/DTD/svg10.dtd">
<svg version="1.0" xmlns="http://www.w3.org/2000/svg"
 width="260.000000pt" height="260.000000pt" viewBox="0 0 260.000000 260.000000"
 preserveAspectRatio="xMidYMid meet">
<metadata>
Created by potrace 1.11, written by Peter Selinger 2001-2013
</metadata>
<g transform="translate(0.000000,260.000000) scale(0.100000,-0.100000)"
fill="#000000" stroke="none">
<path d="M248 2349 c-143 -144 -248 -257 -248 -267 0 -10 53 -70 121 -136
l121 -118 -121 -122 c-66 -67 -121 -128 -121 -136 0 -8 57 -72 127 -142 l127
-128 -127 -124 c-76 -74 -127 -132 -127 -143 0 -12 49 -67 121 -137 l121 -118
-121 -122 c-66 -67 -121 -128 -121 -136 0 -20 501 -520 520 -520 8 0 69 55
136 121 l122 121 117 -121 c66 -67 126 -121 136 -121 10 0 75 57 145 127 l126
126 126 -126 c70 -70 134 -127 142 -127 8 0 69 55 136 121 l122 121 117 -121
c67 -68 126 -121 136 -121 18 0 519 492 519 509 0 4 -56 63 -125 132 l-124
125 124 124 c69 69 125 129 125 135 0 6 -58 68 -128 138 l-129 129 129 130
c70 72 128 134 128 138 0 3 -56 62 -125 131 l-124 125 124 124 c69 69 125 129
125 135 0 13 -512 525 -525 525 -6 0 -64 -54 -130 -120 -66 -66 -124 -120
-128 -120 -5 0 -63 54 -130 120 -66 66 -126 120 -133 120 -7 0 -25 -15 -39
-34 -14 -19 -71 -76 -126 -127 l-101 -92 -126 126 c-70 70 -132 127 -137 127
-6 0 -64 -54 -130 -120 -66 -66 -124 -120 -128 -120 -5 0 -63 54 -130 120 -66
66 -125 120 -131 119 -6 0 -122 -113 -258 -250z"/>
</g>
</svg>
