<?xml version="1.0" standalone="no"?>
<!DOCTYPE svg PUBLIC "-//W3C//DTD SVG 20010904//EN"
 "http://www.w3.org/TR/2001/REC-SVG-20010904/DTD/svg10.dtd">
<svg version="1.0" xmlns="http://www.w3.org/2000/svg"
 width="260.000000pt" height="260.000000pt" viewBox="0 0 260.000000 260.000000"
 preserveAspectRatio="xMidYMid meet">
<metadata>
Created by potrace 1.11, written by Peter Selinger 2001-2013
</metadata>
<g transform="translate(0.000000,260.000000) scale(0.100000,-0.100000)"
fill="#000000" stroke="none">
<path d="M487 2593 c-9 -2 -15 -8 -13 -11 6 -10 -101 -112 -109 -104 -4 4 -5
2 -3 -3 2 -6 -79 -92 -179 -192 -150 -149 -182 -187 -181 -208 1 -14 5 -25 9
-25 3 0 56 -50 118 -111 l112 -110 -118 -120 c-72 -73 -118 -128 -118 -140 0
-12 48 -67 123 -143 l123 -123 -26 -32 c-15 -17 -31 -28 -36 -25 -5 3 -8 0 -7
-8 2 -7 -3 -12 -10 -10 -8 1 -12 -1 -9 -5 5 -11 -140 -153 -148 -145 -4 4 -6
3 -4 -3 1 -5 -1 -18 -6 -28 -8 -18 18 -67 35 -67 6 0 10 -7 10 -15 0 -8 4 -15
9 -15 5 0 48 -39 95 -86 l87 -87 -118 -118 c-65 -65 -119 -127 -121 -136 -4
-24 490 -518 518 -518 12 0 67 47 139 118 l119 119 114 -116 c63 -64 113 -117
111 -119 -1 -2 13 -4 32 -4 19 0 33 3 30 5 -8 8 16 32 26 26 5 -3 8 0 7 8 -2
7 4 12 12 10 8 -2 12 -1 8 3 -8 8 68 85 84 85 6 0 9 3 6 6 -8 7 34 50 45 46 4
-1 6 3 5 10 -2 7 2 12 9 13 6 0 15 4 20 9 5 5 2 6 -7 1 -11 -6 -10 -2 2 11 17
17 22 13 143 -106 73 -73 133 -125 145 -125 11 0 69 50 139 118 l120 118 108
-108 c60 -59 108 -111 106 -115 -2 -3 11 -9 27 -13 25 -6 35 -2 52 17 11 12
24 22 29 20 5 -1 8 4 7 10 -2 7 4 11 12 10 8 -2 12 -1 8 3 -7 7 83 101 95 97
4 -1 6 1 5 5 -4 10 105 119 114 115 5 -1 8 3 8 9 0 11 60 69 72 69 5 0 7 3 6
8 -3 8 104 118 112 115 17 -5 5 38 -15 57 -14 13 -22 27 -19 32 3 5 0 7 -8 6
-7 -2 -12 3 -10 10 1 6 -4 11 -10 10 -7 -2 -12 3 -10 10 1 6 -4 11 -10 10 -7
-2 -12 3 -10 10 1 8 -2 11 -8 7 -6 -3 -14 3 -18 14 -4 11 -11 21 -17 23 -5 2
-31 23 -57 48 l-47 45 123 122 c67 68 123 129 123 137 0 8 -42 56 -94 107 -51
50 -93 94 -93 98 0 3 -13 15 -30 26 -16 11 -32 25 -34 30 -5 13 151 164 162
156 4 -3 4 -2 0 3 -10 11 11 38 23 30 5 -3 8 0 7 8 -2 7 3 12 10 10 8 -1 11 2
7 7 -3 6 6 18 20 27 30 20 32 35 5 59 -10 9 -18 22 -17 28 1 6 -3 11 -8 12
-17 0 -65 52 -57 61 4 4 2 4 -4 1 -14 -8 -37 17 -26 28 4 5 3 6 -3 3 -5 -3
-33 18 -62 47 l-51 53 124 122 c105 105 123 126 118 146 -4 13 -10 24 -15 24
-13 0 -48 37 -41 44 3 3 -2 6 -11 6 -9 0 -17 6 -17 14 0 8 -4 16 -9 18 -5 2
-44 36 -87 77 -43 41 -72 71 -64 66 9 -5 11 -4 6 3 -4 7 -13 12 -21 12 -7 0
-17 9 -20 20 -3 11 -10 20 -14 20 -4 0 -54 47 -112 105 -57 57 -109 105 -115
105 -6 0 -64 -54 -129 -120 -66 -66 -123 -120 -128 -120 -4 0 -62 54 -128 120
-66 66 -125 120 -131 120 -5 0 -25 -15 -43 -34 -18 -19 -36 -31 -40 -28 -4 4
-5 0 -3 -8 2 -8 -3 -14 -9 -13 -7 2 -12 -3 -10 -10 1 -6 -4 -11 -10 -10 -7 2
-12 -1 -10 -5 3 -11 -61 -72 -76 -72 -6 0 -8 -3 -5 -6 7 -6 -47 -64 -60 -64
-5 0 -36 29 -70 64 -34 35 -64 61 -67 58 -3 -3 -5 3 -5 13 0 10 -2 16 -5 13
-3 -3 -30 19 -59 48 -29 30 -58 54 -63 54 -5 0 -65 -56 -133 -124 l-123 -124
-49 48 c-26 26 -48 52 -48 59 0 7 -4 10 -9 7 -11 -7 -33 19 -23 28 4 4 0 6 -8
4 -8 -1 -14 3 -12 10 1 6 -4 11 -10 10 -7 -2 -12 3 -10 10 1 6 -4 11 -10 10
-7 -2 -12 3 -10 10 1 8 -2 11 -6 8 -5 -3 -18 6 -28 19 -19 25 -24 27 -57 18z"/>
</g>
</svg>
